<svg xmlns="http://www.w3.org/2000/svg" xmlns:xlink="http://www.w3.org/1999/xlink" viewBox="0 0 90 80.515">
  <defs>
    <style>
      .cls-1 {
        fill: url(#linear-gradient);
      }
    </style>
    <linearGradient id="linear-gradient" x1="0.5" y1="1" x2="0.5" gradientUnits="objectBoundingBox">
      <stop offset="0" stop-color="#3c67b1"/>
      <stop offset="1" stop-color="#3ca3db"/>
    </linearGradient>
  </defs>
  <g id="credit-cards-payment" transform="translate(-103 83.766)">
    <g id="Group_6" data-name="Group 6" transform="translate(103 -83.766)">
      <path id="Path_3" data-name="Path 3" class="cls-1" d="M233.286,45.035l-55.32-11.707a4.362,4.362,0,0,0-5.155,3.355l-1.051,6.754,63.83,13.507,1.051-6.754A4.362,4.362,0,0,0,233.286,45.035Z" transform="translate(-146.735 -33.234)"/>
      <path id="Path_4" data-name="Path 4" class="cls-1" d="M63.375,172.511a4.386,4.386,0,0,0-5.384-3.057l-10.462,2.915L22.864,167.13l-2.713,12.865L3.2,184.716a4.4,4.4,0,0,0-3.045,5.4L9.71,224.667a4.385,4.385,0,0,0,5.384,3.056l54.788-15.261a4.406,4.406,0,0,0,3.045-5.4l-1.639-5.931,6.145,1.3a4.345,4.345,0,0,0,5.136-3.354l3.888-18.44-22.133-4.7ZM69.7,190.07l1.355-6.428a1.789,1.789,0,0,1,2.113-1.38l6.4,1.361a1.8,1.8,0,0,1,1.376,2.121l-1.355,6.428a1.788,1.788,0,0,1-2.113,1.38l-6.4-1.36A1.8,1.8,0,0,1,69.7,190.07ZM4.157,188.164l15.162-4.222,35.774-9.965,3.85-1.074a.8.8,0,0,1,.209-.028.827.827,0,0,1,.786.593l.452,1.634,1.416,5.122L5.462,195.918l-1.868-6.755A.823.823,0,0,1,4.157,188.164Zm65.334,19.85a.8.8,0,0,1-.08.615.788.788,0,0,1-.483.385L14.141,224.275a.794.794,0,0,1-.209.029.828.828,0,0,1-.786-.594L7.575,203.559l56.343-15.7,3.436,12.428Z" transform="translate(0 -147.368)"/>
      <path id="Path_5" data-name="Path 5" class="cls-1" d="M98.993,445.912a1.8,1.8,0,0,0-2.2-1.246l-6.422,1.783a1.794,1.794,0,0,0-1.245,2.2l1.782,6.422a1.794,1.794,0,0,0,2.2,1.245l6.422-1.782a1.8,1.8,0,0,0,1.246-2.2Z" transform="translate(-75.913 -383.887)"/>
    </g>
  </g>
</svg>
