<svg xmlns="http://www.w3.org/2000/svg" width="153" height="44.615" viewBox="0 0 153 44.615">
  <path id="logo-light" d="M133.112,39.951A19.875,19.875,0,1,1,153,20.076,19.881,19.881,0,0,1,133.112,39.951Zm0-7.706a12.168,12.168,0,1,0-12.177-12.168A12.173,12.173,0,0,0,133.112,32.244ZM86.432,4.055V36.882a3.069,3.069,0,0,0,3.07,3.069H107a3.853,3.853,0,1,0-.064-7.706H94.144V4.055a3.856,3.856,0,0,0-7.713,0ZM72.6,20.3v-.227A12.178,12.178,0,1,0,60.494,32.244v5.748q7.778-6.536,10.562-11.97a12.08,12.08,0,0,0,1.339-3.674,10.159,10.159,0,0,0,.214-2.043h0ZM60.5,44.815Q40.542,33.171,40.543,20.131a19.888,19.888,0,1,1,39.776,0q0,13.135-19.824,24.684ZM14.869.346A19.486,19.486,0,0,1,28.706,6.013a18.461,18.461,0,0,1,5.969,13.936A19.469,19.469,0,0,1,28.842,34.13a19.126,19.126,0,0,1-14.137,5.911H3.071A3.07,3.07,0,0,1,0,36.972V3.415A3.07,3.07,0,0,1,3.071.346ZM23.05,28.8a11.042,11.042,0,0,0,3.918-8.661,11.368,11.368,0,0,0-3.816-8.723A12.809,12.809,0,0,0,14.2,7.908H7.711V32.244h6.555A12.974,12.974,0,0,0,23.05,28.8Z" transform="translate(0 -0.2)" fill="#212121" fill-rule="evenodd"/>
</svg>
